<mxfile host="app.diagrams.net" agent="Mozilla/5.0 (X11; Linux x86_64; rv:144.0) Gecko/20100101 Firefox/144.0" version="28.2.8">
  <diagram name="Page 1" id="Page-1">
    <mxGraphModel dx="732" dy="874" grid="1" gridSize="10" guides="1" tooltips="1" connect="1" arrows="1" fold="1" page="1" pageScale="1" pageWidth="827" pageHeight="1169" math="1" shadow="0">
      <root>
        <mxCell id="0" />
        <mxCell id="1" parent="0" />
        <mxCell id="j2CR8f1PHqKJb8Jv-K0H-37" value="$$\theta$$" style="text;html=1;whiteSpace=wrap;align=center;verticalAlign=middle;rounded=0;fontFamily=Helvetica;fontSize=11;labelBackgroundColor=default;" parent="1" vertex="1">
          <mxGeometry x="425" y="339" width="20" height="20" as="geometry" />
        </mxCell>
        <UserObject label="" tags="Ã‰lectrique Lien" id="22">
          <mxCell parent="1" vertex="1" visible="0">
            <mxGeometry as="geometry" />
          </mxCell>
        </UserObject>
        <mxCell id="j2CR8f1PHqKJb8Jv-K0H-31" value="" style="edgeStyle=none;orthogonalLoop=1;jettySize=auto;html=1;rounded=0;align=center;verticalAlign=middle;fontFamily=Helvetica;fontSize=11;fontColor=default;labelBackgroundColor=default;endArrow=classic;endFill=1;" parent="1" edge="1">
          <mxGeometry width="80" relative="1" as="geometry">
            <mxPoint x="400" y="360" as="sourcePoint" />
            <mxPoint x="400" y="240" as="targetPoint" />
            <Array as="points" />
          </mxGeometry>
        </mxCell>
        <mxCell id="j2CR8f1PHqKJb8Jv-K0H-32" value="" style="edgeStyle=none;orthogonalLoop=1;jettySize=auto;html=1;rounded=0;align=center;verticalAlign=middle;fontFamily=Helvetica;fontSize=11;fontColor=default;labelBackgroundColor=default;endArrow=classic;endFill=1;" parent="1" edge="1">
          <mxGeometry width="80" relative="1" as="geometry">
            <mxPoint x="400" y="360" as="sourcePoint" />
            <mxPoint x="560.8333333333334" y="360" as="targetPoint" />
            <Array as="points" />
          </mxGeometry>
        </mxCell>
        <mxCell id="j2CR8f1PHqKJb8Jv-K0H-33" value="" style="edgeStyle=none;orthogonalLoop=1;jettySize=auto;html=1;rounded=0;align=center;verticalAlign=middle;fontFamily=Helvetica;fontSize=11;fontColor=default;labelBackgroundColor=default;endArrow=classic;endFill=1;" parent="1" edge="1">
          <mxGeometry width="80" relative="1" as="geometry">
            <mxPoint x="400" y="360" as="sourcePoint" />
            <mxPoint x="560" y="240" as="targetPoint" />
            <Array as="points" />
          </mxGeometry>
        </mxCell>
        <mxCell id="j2CR8f1PHqKJb8Jv-K0H-36" value="" style="verticalLabelPosition=bottom;verticalAlign=top;html=1;shape=mxgraph.basic.arc;startAngle=0.14912876272565737;endAngle=0.25159149638245415;fontFamily=Helvetica;fontSize=11;labelBackgroundColor=default;" parent="1" vertex="1">
          <mxGeometry x="370" y="330" width="60" height="60" as="geometry" />
        </mxCell>
        <mxCell id="j2CR8f1PHqKJb8Jv-K0H-38" value="P&lt;sub&gt;r&lt;/sub&gt;" style="text;html=1;whiteSpace=wrap;align=center;verticalAlign=middle;rounded=0;convertToSvg=1;" parent="1" vertex="1">
          <mxGeometry x="370" y="240" width="30" height="20" as="geometry" />
        </mxCell>
        <mxCell id="j2CR8f1PHqKJb8Jv-K0H-40" value="P&lt;sub&gt;act&lt;/sub&gt;" style="text;html=1;whiteSpace=wrap;align=center;verticalAlign=middle;rounded=0;convertToSvg=1;" parent="1" vertex="1">
          <mxGeometry x="530" y="360" width="30" height="20" as="geometry" />
        </mxCell>
        <mxCell id="j2CR8f1PHqKJb8Jv-K0H-51" value="P&lt;sub&gt;a&lt;/sub&gt;" style="text;html=1;whiteSpace=wrap;align=center;verticalAlign=middle;rounded=0;convertToSvg=1;" parent="1" vertex="1">
          <mxGeometry x="540" y="250" width="30" height="20" as="geometry" />
        </mxCell>
      </root>
    </mxGraphModel>
  </diagram>
</mxfile>
